<svg xmlns="http://www.w3.org/2000/svg" width="400" height="400" viewBox="0 0 512 512"><linearGradient id="a" x1="514.8" x2="-122.4" y1="-43.2" y2="594" gradientUnits="userSpaceOnUse"><stop offset="0" stop-color="#ff9494"/><stop offset="1" stop-color="#ffe8dc" stop-opacity="0"/></linearGradient><linearGradient id="b" x1="211.8" x2="211.8" y1="461.3" y2="121.6" gradientUnits="userSpaceOnUse"><stop offset="0" stop-color="#ff4d4d" stop-opacity=".4"/><stop offset="1" stop-color="#ff4d4d" stop-opacity="0"/></linearGradient><path fill="url(#a)" d="M428.4 171.9c-8.3-8.4-18-15-28.7-19.8-28-12.7-50-35.4-62.4-63.5A148.2 148.2 0 1 0 80.4 233.4a127.8 127.8 0 0 1 17 111.7c-16.7 53.8-10.9 104.9 21 136.8 56 55.9 170.6 31.8 256.2-53.8s109.7-200.3 53.8-256.2z"/><path fill="#4d4dff" d="M364 141.6v299.7c0 11-8.9 20-20 20H140.2c-11 0-20-9-20-20V141.6c0-11 9-20 20-20h204c11 0 20 9 20 20z"/><path fill="#2c27ff" d="M364 191.8V433h-74.2a10 10 0 0 1-10-10V201.8a10 10 0 0 1 10-10z"/><path fill="#ff9d33" d="M339.9 82.1V59.7a30 30 0 0 0-30-30l-51.5 2.7V87H335a5 5 0 0 0 5-5z"/><path fill="#ff8b00" d="M340 59.7v14.8a30 30 0 0 0-30-30h-51.6V32.4l51.5-2.7a30 30 0 0 1 30 30z"/><path fill="#ffc599" d="M288.8 402.1V180.8a10 10 0 0 1 10-10h141a10 10 0 0 1 10 10V402a10 10 0 0 1-10 10h-141a10 10 0 0 1-10-10z"/><path fill="#2c27ff" d="M394 170.8h32.6V412h-32.7z"/><path fill="#ff4d4d" d="M364.3 212.2v-11.6a5 5 0 1 1 10 0v11.6a5 5 0 1 1-10 0z"/><g fill="#ff8b00"><path d="M369.3 385.5a5 5 0 0 1-3.5-1.4l-10-10a5 5 0 1 1 7-7.1l10 10a5 5 0 0 1-3.5 8.5zM369.3 361.6a5 5 0 0 1-3.5-1.5l-10-10a5 5 0 1 1 7-7l10 10a5 5 0 0 1-3.5 8.5zM369.3 337.7a5 5 0 0 1-3.5-1.5l-10-10a5 5 0 1 1 7-7l10 10a5 5 0 0 1-3.5 8.5zM369.3 313.7a5 5 0 0 1-3.5-1.4l-10-10a5 5 0 1 1 7-7.1l10 10a5 5 0 0 1-3.5 8.5z"/></g><path fill="#ff4d4d" d="M382.7 257.5v-56.9a5 5 0 0 1 5-5h6.5a5 5 0 0 1 5 5v57a5 5 0 0 1-5 5h-6.5a5 5 0 0 1-5-5z"/><path fill="#ff9d33" d="M313.8 461.3h-204c-11 0-20-9-20-20V141.6c0-11 9-20 20-20h204c11 0 20 9 20 20v299.7c0 11-9 20-20 20z"/><path fill="#fff" d="M311 29.7a30 30 0 0 0-30 30v104H142.1v-104a30 30 0 0 1 30-30z"/><path fill="#9494ff" d="M289.8 259h-156a5 5 0 0 1-5-5v-63.9a5 5 0 0 1 5-5h156a5 5 0 0 1 5 5V254a5 5 0 0 1-5 5z"/><path fill="#ffd6bb" d="M170.9 317.6h-22.5a7.4 7.4 0 0 1-7.4-7.4v-22.5c0-4.1 3.3-7.4 7.4-7.4H171c4 0 7.4 3.3 7.4 7.4v22.5c0 4-3.3 7.4-7.4 7.4zM223.9 317.6h-22.5a7.4 7.4 0 0 1-7.4-7.4v-22.5c0-4.1 3.3-7.4 7.4-7.4H224c4 0 7.4 3.3 7.4 7.4v22.5c0 4-3.3 7.4-7.4 7.4zM276.9 317.6h-22.5a7.4 7.4 0 0 1-7.4-7.4v-22.5c0-4.1 3.3-7.4 7.4-7.4H277c4 0 7.4 3.3 7.4 7.4v22.5c0 4-3.3 7.4-7.4 7.4zM170.9 373h-22.5a7.4 7.4 0 0 1-7.4-7.4v-22.4c0-4.1 3.3-7.5 7.4-7.5H171c4 0 7.4 3.4 7.4 7.5v22.4c0 4.1-3.3 7.5-7.4 7.5zM223.9 373h-22.5a7.4 7.4 0 0 1-7.4-7.4v-22.4c0-4.1 3.3-7.5 7.4-7.5H224c4 0 7.4 3.4 7.4 7.5v22.4c0 4.1-3.3 7.5-7.4 7.5zM276.9 373h-22.5a7.4 7.4 0 0 1-7.4-7.4v-22.4c0-4.1 3.3-7.5 7.4-7.5H277c4 0 7.4 3.4 7.4 7.5v22.4c0 4.1-3.3 7.5-7.4 7.5zM170.9 428.6h-22.5a7.4 7.4 0 0 1-7.4-7.5v-22.4c0-4.1 3.3-7.5 7.4-7.5H171c4 0 7.4 3.4 7.4 7.5V421c0 4.1-3.3 7.5-7.4 7.5zM223.9 428.6h-22.5a7.4 7.4 0 0 1-7.4-7.5v-22.4c0-4.1 3.3-7.5 7.4-7.5H224c4 0 7.4 3.4 7.4 7.5V421c0 4.1-3.3 7.5-7.4 7.5zM276.9 428.6h-22.5a7.4 7.4 0 0 1-7.4-7.5v-22.4c0-4.1 3.3-7.5 7.4-7.5H277c4 0 7.4 3.4 7.4 7.5V421c0 4.1-3.3 7.5-7.4 7.5z"/><path fill="#ff2c2c" d="M181 91.1h-12.4a5 5 0 1 1 0-10H181a5 5 0 1 1 0 10z"/><path fill="#9494ff" d="M226 117.1h-57.4a5 5 0 1 1 0-10H226a5 5 0 1 1 0 10zM256 137.1h-87.4a5 5 0 1 1 0-10H256a5 5 0 1 1 0 10z"/><g fill="#ff7300"><circle cx="117.1" cy="396.6" r="5.6" transform="rotate(-67.3 117 396.5)"/><circle cx="117.1" cy="413.6" r="5.6" transform="rotate(-67.3 117 413.4)"/><path d="M122.7 430.5a5.6 5.6 0 1 1-11.2 0 5.6 5.6 0 0 1 11.2 0"/></g><path fill="#b3b3ff" d="M246 185.1 172 259h-17.5l73.9-73.9zM293.8 187.2 222 259h-38.5l73.9-73.9h32.4a5 5 0 0 1 4 2z"/><path fill="#ff9d33" d="M402.3 101.1a5 5 0 0 1-3.6-8.5l10-10a5 5 0 0 1 7.1 7l-10 10a5 5 0 0 1-3.5 1.5z"/><path fill="#ff6c6c" d="M62.2 243.4a5 5 0 0 1-3.5-8.5l10-10a5 5 0 0 1 7 7l-10 10a5 5 0 0 1-3.5 1.5z"/><path fill="#ff9d33" d="M409.2 471.3a5 5 0 0 1-3.6-1.4l-6.4-6.5-6.5 6.5a5 5 0 0 1-7-7.1l10-10c1.9-2 5-2 7 0l10 10a5 5 0 0 1-3.5 8.5z"/><path fill="#6c6cff" d="M99.8 81.1a5 5 0 0 1-3.5-1.4l-6.5-6.5-6.5 6.5a5 5 0 0 1-7-7.1l10-10c1.9-2 5-2 7 0l10 10a5 5 0 0 1-3.5 8.5zM433.6 140.4a5 5 0 0 1-3.5-1.4l-6.5-6.5-6.5 6.5a5 5 0 0 1-7-7.1l10-10c2-2 5-2 7 0l10 10a5 5 0 0 1-3.5 8.5z"/><path fill="url(#b)" d="M313.8 461.3h-204c-11 0-20-9-20-20V141.6c0-11 9-20 20-20h204c11 0 20 9 20 20v299.7c0 11-9 20-20 20z"/></svg>
